<svg xmlns="http://www.w3.org/2000/svg" width="406" height="210" viewBox="0 0 406 210" fill="#111111"><svg width="351.05831480388395" height="273.2375061035156" viewBox="0 0 406 316" class="looka-1j8o68f"><defs id="SvgjsDefs4402"></defs><g id="SvgjsG4403" featurekey="aMgJeN-0" transform="matrix(2.138888888888889,0,0,2.138888888888889,-14.972222222222221,89.75)" fill="#111111"><metadata xmlns="http://www.w3.org/2000/svg"><sfw xmlns="http://ns.adobe.com/SaveForWeb/1.0/"><slices><slicesourcebounds y="-8160" x="-8165" width="16389" height="16384" bottomleftorigin="true"></slicesourcebounds><optimizationsettings><targetsettings fileformat="PNG24Format" targetsettingsid="0"><png24format transparency="true" mattecolor="" nomattecolor="false" interlaced="false" filtered="false"></png24format></targetsettings></optimizationsettings></slices></sfw></metadata><g xmlns="http://www.w3.org/2000/svg"><path d="M56,9H8c-0.552,0-1,0.448-1,1v44c0,0.553,0.448,1,1,1h48c0.553,0,1-0.447,1-1V10C57,9.448,56.553,9,56,9z M30.707,32.707   l-10,10C20.512,42.902,20.256,43,20,43s-0.512-0.098-0.707-0.293c-0.391-0.391-0.391-1.023,0-1.414L28.586,32l-9.293-9.293   c-0.391-0.391-0.391-1.023,0-1.414s1.023-0.391,1.414,0l10,10C31.098,31.684,31.098,32.316,30.707,32.707z M44,43H34   c-0.553,0-1-0.447-1-1s0.447-1,1-1h10c0.553,0,1,0.447,1,1S44.553,43,44,43z"></path></g></g><g id="SvgjsG4404" featurekey="textGroupContainer" transform="matrix(1,0,0,1,405,0)" fill="#111111"><rect xmlns="http://www.w3.org/2000/svg" y="0" height="1" width="1" opacity="0"></rect><rect xmlns="http://www.w3.org/2000/svg" y="0" x="-278" width="3" height="316"></rect></g><g id="SvgjsG4405" featurekey="8L6ael-0" transform="matrix(3.5180618894964146,0,0,3.5180618894964146,144.99988844341485,57.905897840664366)" fill="#111111"><path d="M5.2051 5.996 l0.019521 -0.0000095367 c2.0898 0 3.3691 0.68034 3.8379 2.041 c0.21484 0.50781 0.32227 1.2207 0.32227 2.1387 l-2.2754 0.30273 l-0.029297 -0.048828 l0 -0.048828 c0 -1.1003 -0.37109 -1.7578 -1.1133 -1.9727 c-0.22786 -0.058594 -0.50455 -0.097656 -0.83007 -0.11719 c-0.80729 0 -1.3281 0.43294 -1.5625 1.2988 c-0.13672 0.57942 -0.20508 1.263 -0.20508 2.0508 l0 1.0938 c0 1.2761 0.016279 2.2331 0.048828 2.8711 l0.57617 0 l0 1.9531 l2.7832 0 l0 -3.3398 l-1.7578 0 l0 -1.7871 l5.293 0 l0 0.39063 l-0.69336 0 l0 2.0703 l-1.416 0 l0 0.64453 l0.69336 0 l0 3.9746 l-7.5684 0 l0 -2.1094 l-0.85938 0 l0 -0.18555 l0.37109 0 l0 -0.21484 l0.48828 0 l0 -0.79102 l-1.3281 0 l0 -1.6895 l0.625 0 c-0.013018 -0.49479 -0.019531 -0.78125 -0.019531 -0.85938 c0 -2.9622 0.16276 -4.7526 0.48828 -5.3711 c0.091143 -0.38411 0.36133 -0.81055 0.81055 -1.2793 c0.65755 -0.67708 1.7578 -1.0156 3.3008 -1.0156 z M3.623 14.7949 l0.13672 0 l0 0.625 l-0.13672 0 l0 -0.625 z M9.3164 15.6348 c0.097656 0.032549 0.14974 0.071621 0.15625 0.1172 l0 0.087891 c0 0.026045 -0.029297 0.058594 -0.087891 0.097656 c0.013018 0.026045 0.019531 0.048828 0.019531 0.068359 l0.048828 0 l0 -0.048828 l0.11719 0 l0 0.029297 c0 0.071611 -0.016279 0.10742 -0.048828 0.10742 c0 0.019531 0.039063 0.074873 0.11719 0.16602 l-0.13672 0 l-0.068359 -0.048828 c-0.065107 0.045576 -0.12695 0.068359 -0.18555 0.068359 c-0.10417 0 -0.16602 -0.068359 -0.18555 -0.20508 c0.019531 -0.065107 0.055342 -0.11068 0.10742 -0.13673 c-0.013018 -0.084639 -0.019531 -0.14648 -0.019531 -0.18555 c0 -0.045576 0.055342 -0.084639 0.16602 -0.11719 z M9.2676 15.800799999999999 c0.013018 0.026045 0.019531 0.048828 0.019531 0.068359 c0.026045 0 0.048828 -0.022783 0.068359 -0.068359 c0 -0.032549 -0.013018 -0.048828 -0.039063 -0.048828 c-0.032549 0 -0.048828 0.016279 -0.048828 0.048828 z M9.248 16.0059 l-0.048828 0.068359 l0 0.019531 c0 0.026045 0.022783 0.05209 0.068359 0.078135 c0.058594 -0.026045 0.087891 -0.05209 0.087891 -0.078135 z M9.3164 16.6309 c0.097656 0.032549 0.14974 0.071631 0.15625 0.11721 l0 0.097656 c0 0.019531 -0.029297 0.048828 -0.087891 0.087891 c0.013018 0.032549 0.019531 0.055332 0.019531 0.06835 l0.048828 0 l0 -0.048828 l0.11719 0 l0 0.029297 c0 0.078125 -0.016279 0.11719 -0.048828 0.11719 c0 0.013018 0.039063 0.065098 0.11719 0.15624 l-0.13672 0 l-0.068359 -0.039063 c-0.065107 0.045576 -0.12695 0.068359 -0.18555 0.068359 c-0.10417 0 -0.16602 -0.071611 -0.18555 -0.21484 c0.019531 -0.058594 0.055342 -0.10417 0.10742 -0.13672 c-0.013018 -0.084639 -0.019531 -0.14648 -0.019531 -0.18555 c0 -0.045576 0.055342 -0.084639 0.16602 -0.11719 z M9.2676 16.7969 c0.013018 0.026045 0.019531 0.048818 0.019531 0.06835 c0.026045 0 0.048828 -0.022783 0.068359 -0.068359 c0 -0.032549 -0.013018 -0.048828 -0.039063 -0.048828 c-0.032549 0.0065136 -0.048828 0.022793 -0.048828 0.048838 z M4.4336 16.7969 c0.20183 0.032549 0.30273 0.1237 0.30273 0.27344 l0 0.068359 c-0.013018 0.20183 -0.11393 0.30273 -0.30272 0.30273 l-0.019531 0 c-0.1888 0 -0.2832 -0.11394 -0.2832 -0.3418 c0.05208 -0.20183 0.15299 -0.30273 0.30272 -0.30273 z M4.9707 16.8164 l0.50781 0 l0 0.13672 l-0.15625 0 l0 0.44922 c0 0.026045 -0.016279 0.039063 -0.048828 0.039063 l-0.068359 0 c-0.032549 0 -0.048828 -0.013018 -0.048828 -0.039063 l0 -0.44922 l-0.13672 0 c-0.032549 0 -0.048828 -0.013018 -0.048828 -0.039063 l0 -0.097656 z M4.2969 17.0996 l0.0000095367 0.11719 c0 0.019531 0.032549 0.048828 0.097656 0.087891 l0.10742 0 c0.05208 0 0.084629 -0.061846 0.097646 -0.18555 c0 -0.078125 -0.039063 -0.13997 -0.11719 -0.18555 l-0.019531 0 c-0.11067 0 -0.16602 0.055342 -0.16602 0.16602 z M9.248 17.002 l-0.048818 0.068359 l0 0.029297 c0 0.019531 0.022783 0.042314 0.068359 0.068359 c0.058594 -0.026045 0.087891 -0.048828 0.087891 -0.068359 c-0.065107 -0.065107 -0.10092 -0.097656 -0.10743 -0.097656 z M9.2871 17.627 c0.078125 0 0.13997 0.039072 0.18555 0.1172 l0 0.097656 c0 0.026045 -0.029297 0.055342 -0.087891 0.087891 c0.013018 0.032549 0.019531 0.055332 0.019531 0.06835 l0.048828 0 l0 -0.039063 l0.11719 0 l0 0.019531 c0 0.078125 -0.016279 0.11719 -0.048828 0.11719 c0 0.013018 0.039063 0.068359 0.11719 0.16602 l-0.13672 0 l-0.068359 -0.048828 c-0.065107 0.045576 -0.12695 0.068359 -0.18555 0.068359 c-0.10417 0 -0.16602 -0.068359 -0.18555 -0.20508 c0.019531 -0.065107 0.055342 -0.11394 0.10742 -0.14648 l-0.019531 -0.15625 l0 -0.029297 c0 -0.026045 0.045576 -0.065107 0.13672 -0.11719 z M9.2676 17.793 c0.013018 0.032549 0.019531 0.055332 0.019531 0.06835 c0.026045 0 0.048828 -0.022783 0.068359 -0.068359 c0 -0.032549 -0.013018 -0.048828 -0.039063 -0.048828 c-0.032549 0.0065136 -0.048828 0.022793 -0.048828 0.048838 z M9.248 17.998 l-0.048828 0.078125 l0 0.019531 c0 0.019531 0.022783 0.042314 0.068359 0.068359 c0.058594 -0.019531 0.087891 -0.042314 0.087891 -0.068359 z M9.2871 18.6328 c0.078125 0 0.13997 0.039072 0.18555 0.1172 l0 0.087891 c0 0.026045 -0.029297 0.058594 -0.087891 0.097656 c0.013018 0.026045 0.019531 0.048828 0.019531 0.068359 l0.048828 0 l0 -0.048828 l0.11719 0 l0 0.019531 l-0.048828 0.16602 c0.019531 0 0.058594 0.039063 0.11719 0.11719 l-0.13672 0 l-0.068359 -0.048828 c-0.065107 0.045576 -0.12695 0.068359 -0.18555 0.068359 c-0.10417 0 -0.16602 -0.068359 -0.18555 -0.20508 c0.019531 -0.065107 0.055342 -0.11068 0.10742 -0.13673 l-0.019531 -0.16602 l0 -0.019531 c0 -0.032549 0.045576 -0.071611 0.13672 -0.11719 z M9.2676 18.7891 c0.013018 0.032549 0.019531 0.055342 0.019531 0.068359 c0.026045 0 0.048828 -0.022783 0.068359 -0.068359 c0 -0.026045 -0.013018 -0.039063 -0.039063 -0.039063 c-0.032549 0 -0.048828 0.013018 -0.048828 0.039063 z M9.248 19.00391 l-0.048828 0.068359 l0 0.019531 c0 0.026045 0.022783 0.048828 0.068359 0.068359 c0.058594 -0.019531 0.087891 -0.042314 0.087891 -0.068359 z M3.2715 19.71685 l2.8809 0 l0 0.2832 l-2.8809 0 l0 -0.2832 z M12.593745625 6.103999999999999 l6.8457 0 l0 2.2754 c0 0.032549 -0.016279 0.048828 -0.048828 0.048828 l-4.0625 0 l0 3.0078 l3.6426 0 l0 0.029297 c0 0.084639 -0.013018 0.57617 -0.039063 1.4746 c-0.019531 0 -0.029297 0.0065136 -0.029297 0.019531 l0.16602 0 l0 0.70313 l-3.1543 0 l0 2.8516 l-0.84961 0 l0 0.2832 l0.84961 0 l0 0.86914 l3.5742 0 l0 0.32227 l-0.2832 0 l0 1.709 l-4.2773 0 l0 0.30273 l-2.0313 0 l0 -4.9805 l-0.30273 0 l0 -1.7578 l-2.2266 0 l0 -0.30273 l2.2266 0 l0 -6.8555 z M12.613285625 12.959 l0 0.30273 l1.1426 0 l0 -0.30273 l-1.1426 0 z M22.2675775 6.045 l2.8516 0 c0.039063 0 0.34505 0.74544 0.91797 2.2363 c0.045576 0.058594 0.64453 1.53 1.7969 4.4141 l0.73242 0 l0 -6.6504 l2.4902 0 l0 7.9199 l0.2832 0 l0 3.0859 l-1.0059 0 l0 0.5957 l1.0059 0 l0 1.8359 l-3.7402 0 l0 -2.334 l-0.66406 0 c-0.89844 -2.1875 -1.5039 -3.6979 -1.8164 -4.5313 l0 -2.3535 l-0.35156 0 l0 7.168 l-0.56641 0 l0 2.4707 l-2.334 0 l0 -5.3223 l0.41992 0 l0 -0.029297 c-0.013018 -4.5964 -0.019531 -7.4316 -0.019531 -8.5059 z M26.4667875 12.6953 l0 0.51758 l1.5527 0 c-0.1237 -0.34505 -0.20183 -0.51758 -0.23438 -0.51758 l-1.3184 0 z M28.5859875 12.6953 l0 0.51758 l-0.54688 0 c0.33203 0.82683 0.5306 1.3672 0.5957 1.6211 l0.019531 0 l0 -0.068359 c-0.045576 -0.84636 -0.068359 -1.364 -0.068359 -1.5527 l1.1328 0 l0 -0.51758 l-1.1328 0 z M27.5995875 19.73633 l4.5215 0 l0 0.26367 l-4.5215 0 l0 -0.26367 z M34.578120625 6.103999999999999 l6.8457 0 l0 2.2754 c0 0.032549 -0.016279 0.048828 -0.048828 0.048828 l-4.0625 0 l0 3.0078 l3.6426 0 l0 0.029297 c0 0.084639 -0.013018 0.57617 -0.039063 1.4746 c-0.019531 0 -0.029297 0.0065136 -0.029297 0.019531 l0.16602 0 l0 0.70313 l-3.1543 0 l0 2.8516 l-0.84961 0 l0 0.2832 l0.84961 0 l0 0.86914 l3.5742 0 l0 0.32227 l-0.2832 0 l0 1.709 l-4.2773 0 l0 0.30273 l-2.0313 0 l0 -4.9805 l-0.30273 0 l0 -1.7578 l-2.2266 0 l0 -0.30273 l2.2266 0 l0 -6.8555 z M34.597660625 12.959 l0 0.30273 l1.1426 0 l0 -0.30273 l-1.1426 0 z M48.6074625 6.045 c1.5495 0 2.5879 0.49806 3.1152 1.4941 c0.36458 0.75521 0.54688 1.4941 0.54688 2.2168 l-0.019531 0 c-1.0612 0.091143 -1.7871 0.13672 -2.1777 0.13672 c0 -0.51433 -0.1595 -0.94727 -0.47852 -1.2988 c-0.29948 -0.16927 -0.57617 -0.25391 -0.83008 -0.25391 l-0.39063 0 c-0.66406 0 -1.0677 0.25716 -1.2109 0.77148 c-0.032549 0.14974 -0.048828 0.26692 -0.048828 0.35156 l0 0.20508 c0 0.72917 0.38411 1.2565 1.1523 1.582 c0.065107 0.058594 0.59896 0.30273 1.6016 0.73242 c0.53386 0.24739 1.0286 0.55338 1.4844 0.91796 l0 0.019531 l-2.4512 0 l0 0.27344 l3.2324 0 l0 0.39063 l0.41016 0 l0 4.2383 l-0.80078 0 l0 2.1777 l-6.2109 0 l0 -2.1777 l-1.4648 0 l0 -1.4648 l0.83008 0 l0 -0.50781 l-0.83008 0 l0 -0.3418 l2.8418 0 l0 2.3145 l2.9102 0 l0 -3.4863 l-2.1777 0 l0 -1.1426 l-2.7051 0 l0 -0.27344 l1.3086 0 l0 -0.019531 c-1.1458 -0.76172 -1.7188 -1.8392 -1.7188 -3.2324 l0 -0.18555 c0 -1.1653 0.35808 -2.0508 1.0742 -2.6563 c0.65104 -0.52083 1.6536 -0.78125 3.0078 -0.78125 z M52.1328625 12.9199 l0.98633 0 l0 0.27344 l-0.98633 0 l0 -0.27344 z M43.1288725 15.849599999999999 l0.9375 0 l0 0.50781 l-0.9375 0 l0 -0.50781 z M55.39062375 6.006 l2.6367 -0.0000095367 c0.026045 0.0065136 0.039063 0.022793 0.039063 0.048838 l0 6.7969 c0 0.032549 -0.013018 0.048828 -0.039063 0.048828 l-0.3125 0 l0 7.0508 c0 0.032549 -0.016279 0.048828 -0.048828 0.048828 l-2.2754 0 c-0.032549 0 -0.048828 -0.016279 -0.048828 -0.048828 l0 -7.2168 l-0.70313 0 c-0.032549 0 -0.048828 -0.016279 -0.048828 -0.048828 l0 -0.30273 c0.0065136 -0.032549 0.022793 -0.048828 0.048838 -0.048828 l0.70313 0 l0 -6.2793 c0.0065136 -0.032549 0.022793 -0.048828 0.048838 -0.048828 z M55.36130375 12.334 l0 0.40039 l1.3477 0 l0 -0.40039 l-1.3477 0 z M64.5762125 6.045 c1.5495 0 2.5879 0.49806 3.1152 1.4941 c0.36458 0.75521 0.54688 1.4941 0.54688 2.2168 l-0.019531 0 c-1.0612 0.091143 -1.7871 0.13672 -2.1777 0.13672 c0 -0.51433 -0.1595 -0.94727 -0.47852 -1.2988 c-0.29948 -0.16927 -0.57617 -0.25391 -0.83008 -0.25391 l-0.39063 0 c-0.66406 0 -1.0677 0.25716 -1.2109 0.77148 c-0.032549 0.14974 -0.048828 0.26692 -0.048828 0.35156 l0 0.20508 c0 0.72917 0.38411 1.2565 1.1523 1.582 c0.065107 0.058594 0.59896 0.30273 1.6016 0.73242 c0.53386 0.24739 1.0286 0.55338 1.4844 0.91796 l0 0.019531 l-2.4512 0 l0 0.27344 l3.2324 0 l0 0.39063 l0.41016 0 l0 4.2383 l-0.80078 0 l0 2.1777 l-6.2109 0 l0 -2.1777 l-1.4648 0 l0 -1.4648 l0.83008 0 l0 -0.50781 l-0.83008 0 l0 -0.3418 l2.8418 0 l0 2.3145 l2.9102 0 l0 -3.4863 l-2.1777 0 l0 -1.1426 l-2.7051 0 l0 -0.27344 l1.3086 0 l0 -0.019531 c-1.1458 -0.76172 -1.7188 -1.8392 -1.7188 -3.2324 l0 -0.18555 c0 -1.1653 0.35808 -2.0508 1.0742 -2.6563 c0.65104 -0.52083 1.6536 -0.78125 3.0078 -0.78125 z M68.1016125 12.9199 l0.98633 0 l0 0.27344 l-0.98633 0 l0 -0.27344 z M59.0976225 15.849599999999999 l0.9375 0 l0 0.50781 l-0.9375 0 l0 -0.50781 z"></path></g><g id="SvgjsG4406" featurekey="8L6ael-1" transform="matrix(3.887063743541046,0,0,3.887063743541046,145,114.69342415630214)" fill="#111111"><path d="M0.21484 5.996 l3.125 -0.0000095367 c0.34505 1.2565 1.0547 3.7728 2.1289 7.5488 l1.2305 0 c0.032549 0 0.16602 -0.45247 0.40039 -1.3574 c0.52083 -1.7773 1.1035 -3.8411 1.748 -6.1914 l2.8906 0 l0 9.082 l0.16602 0 l0 1.6602 l-0.87891 0 l0 0.30273 l0.87891 0 l0 2.959 l-2.4609 0 l0 -1.084 l0.30273 0 l0 -3.3594 l-0.51758 0 l0 -1.6797 l-0.3125 0 l-0.019531 0.087891 l-0.26367 0 l0 2.3926 l-0.84961 0 l0 1.1133 l-0.73242 0 l0 1.8945 l-1.7285 0 l0 -1.2109 l-1.0645 0 l0 -1.6602 l-0.63477 0 l0 -1.7188 l-0.36133 0 c-0.013018 -0.097656 -0.091143 -0.39714 -0.23438 -0.89844 l2.4805 0 l-0.068359 -0.33203 l-2.4805 0 l0.068359 0.33203 l-0.33203 0 l0 2.168 l0.16602 0 l0 2.3926 l-0.61523 0 l0 0.42969 l0.61523 0 l0 0.63477 l-2.2266 0 l0 -2.8809 l-0.41992 0 l0 -10.625 z M2.6758 12.5488 l0 0.16602 c0 0.14323 0.0065136 0.41992 0.019531 0.83008 l0.23438 0 c-0.15625 -0.63151 -0.23438 -0.96354 -0.23438 -0.99609 l-0.019531 0 z M9.2285 12.5684 l-0.21484 0.97656 l0.21484 0 c0.013018 -0.40364 0.019531 -0.69661 0.019531 -0.87891 l0 -0.097656 l-0.019531 0 z M1.8945 13.5449 l0 0.33203 l0.78125 0 l0 -0.33203 l-0.78125 0 z M6.7383 13.5449 l-0.068359 0.33203 l2.2266 0 c0.065107 -0.17578 0.097656 -0.28646 0.097656 -0.33203 l-2.2559 0 z M9.248 13.5449 l0 0.33203 l1.709 0 l0 -0.33203 l-1.709 0 z M5.5566 13.876999999999999 c0.11067 0.5013 0.18229 0.75195 0.21484 0.75195 l0.2832 0 l0 1.25 l0.44922 0 l0 -1.9336 l0.11719 0 l0 -0.068359 l-1.0645 0 z M11.904 16.7383 l1.416 0 l0 0.30273 l-1.416 0 l0 -0.30273 z M12.041 17.1582 l0.11719 -0.0000095367 l0 0.21484 l0.19531 0 l0 -0.16602 c0 -0.032549 0.016279 -0.048828 0.048828 -0.048828 l0.039063 0 c0.032549 0.0065136 0.048828 0.022793 0.048828 0.048838 l0 0.44922 c0 0.032549 -0.016279 0.048828 -0.048828 0.048828 l-0.087891 0 l0 -0.21484 l-0.19531 0 l0 0.21484 l-0.11719 0 l0 -0.54688 z M12.041 17.8711 l0.33203 -0.0000095367 c0.032549 0.0065136 0.048828 0.022793 0.048828 0.048838 l0 0.068359 l-0.26367 0 l0 0.097656 l0.21484 0 l0 0.11719 l-0.21484 0 l0 0.21484 l-0.11719 0 l0 -0.54688 z M12.07 18.584 l0.33202 0 c0.026045 0 0.039063 0.013018 0.039063 0.039063 l0 0.048828 l-0.25391 0.33203 l0.25391 0 l0 0.11719 l-0.40039 0 c-0.032549 0 -0.048828 -0.022783 -0.048828 -0.068359 c0.05208 -0.078125 0.13997 -0.19531 0.26367 -0.35156 l-0.23438 0 l0 -0.078125 c0.0065136 -0.026045 0.022793 -0.039063 0.048838 -0.039063 z M12.041 19.28708 l0.11719 -0.0000095367 l0 0.3125 l0.029297 0.11719 l0.11719 0 c0.032549 0 0.048828 -0.016279 0.048828 -0.048828 l0 -0.33203 c0 -0.032549 0.016279 -0.048828 0.048828 -0.048828 l0.039063 0 c0.032549 0.0065136 0.048828 0.022793 0.048828 0.048838 l0 0.2832 c0 0.14323 -0.071611 0.21484 -0.21484 0.21484 l-0.039063 0 c-0.091143 0 -0.15625 -0.039063 -0.19531 -0.11719 l0 -0.42969 z M0 19.6191 l2.5098 0 l0 0.21484 l-2.5098 0 l0 -0.21484 z M16.08980625 16.0059 c-0.26042 0 -0.39063 -0.091143 -0.39063 -0.27344 l0 -0.81055 c0 -0.1888 0.13347 -0.2832 0.40039 -0.2832 l3.4766 0 c0.26692 0 0.40039 0.094404 0.40039 0.2832 l0 0.81055 c0 0.18229 -0.13021 0.27344 -0.39063 0.27344 l-3.4961 0 z M22.60937375 6.006 l2.7734 0 l0 5.7422 l-0.53711 0 l0 5.9277 l4.1309 0 l0 1.2402 l-0.82031 0 l0 0.2832 l0.82031 0 l0 0.80078 l-2.6758 0 l0 -0.21484 l-3.6719 0 c-0.013018 -0.15625 -0.019531 -0.27344 -0.019531 -0.35156 l0 -3.125 l0.70313 0 l0 -0.41992 l-0.70313 0 l0 -9.8828 z M25.03129375 16.9434 l0.16602 0 c0.078125 0.11067 0.1237 0.16602 0.13672 0.16602 c0.05208 -0.11067 0.091143 -0.16602 0.11719 -0.16602 l0.14648 0 c-0.019531 0.05208 -0.081377 0.14648 -0.18555 0.2832 c0.032549 0.065107 0.10091 0.17578 0.20508 0.33203 l-0.16602 0 c-0.078125 -0.071611 -0.11719 -0.13672 -0.11719 -0.19531 c-0.013018 0 -0.068359 0.065107 -0.16602 0.19531 l-0.13672 0 l0 -0.029297 l0.18555 -0.2832 l0 -0.019531 z M28.97659375 18.916 l1.0156 0 l0 0.2832 l-1.0156 0 l0 -0.2832 z M35.691409375 6.035 l2.3535 0 c0.032549 0.13672 0.79427 2.679 2.2852 7.627 l0.42969 0 l0 4.5996 l-0.9668 0 l0 0.35156 l0.9668 0 l0 0.98633 l-2.5977 0 l0 -2.8223 l-3.1738 0 l0 1.2012 l-1.2988 0 l0 2.0215 l-2.3535 0 l0 -0.13672 l0.18555 0 l0 -1.8848 l0.9668 0 l0 -3.916 l0.80078 0 z M36.794909375 9.971 l0 0.019531 c-0.20183 1.1133 -0.59245 2.8646 -1.1719 5.2539 l2.1875 0 l0 -1.582 l-0.18555 0 c-0.52083 -2.2591 -0.78125 -3.4896 -0.78125 -3.6914 l-0.048828 0 z M30.652339375 13.6426 l1.8359 0 l0 0.41992 l-1.8359 0 l0 -0.41992 z M38.162109375 19.76562 l3.1348 0 l0 0.23438 l-3.1348 0 l0 -0.23438 z M42.738283125 6.132999999999999 l3.9355 0.000019073 c1.7578 0 2.8743 0.44271 3.3496 1.3281 c0.26692 0.46224 0.40039 1.0938 0.40039 1.8945 l0 0.9668 c0 0.91146 -0.39388 1.6472 -1.1816 2.207 c0.26692 0.045576 0.60547 0.25065 1.0156 0.61523 l0.3125 0 c0.38411 0.40364 0.63477 0.79102 0.75195 1.1621 c0.032549 0.13021 0.048828 0.20182 0.048828 0.21483 l0.38086 0 l0 0.23438 l-1.2598 0 l0 -0.23438 l-2.5781 0 l0 -0.73242 l-2.5391 0 l0 4.0332 l1.5918 0 l0 -0.2832 l0.94727 0 l0 -2.7832 l2.5781 0 l0 2.4512 l0.2832 0 l0 1.5332 l-0.84961 0 l0 0.36133 l0.84961 0 l0 0.63477 l-3.2715 0 l0 0.26367 l-3.5742 0 l0 -0.26367 l-0.78125 0 l0 -2.1289 l1.0645 0 l0 -0.56641 l-1.0645 0 c-0.019531 -1.0872 -0.029297 -1.8945 -0.029297 -2.4219 l0 -1.0254 l-0.89844 0 l0 -0.25391 l0.89844 0 l0 -0.54688 l-0.41992 0 l0 -6.6113 c0 -0.032549 0.013018 -0.048828 0.039063 -0.048828 z M45.423803125 8.477 l0.0000095367 3.4375 l0.58594 0 c0.69661 0 1.1556 -0.11719 1.377 -0.35156 c0.22136 -0.1888 0.33203 -0.69661 0.33203 -1.5234 l0 -0.048828 c0 -0.70313 -0.11067 -1.1296 -0.33203 -1.2793 c-0.14323 -0.15625 -0.64779 -0.23438 -1.5137 -0.23438 l-0.44922 0 z M43.148443125 13.3398 l0 0.25391 l1.2793 0 l0 -0.25391 l-1.2793 0 z M46.605503125 14.5215 l1.3086 0 l0 0.23438 l-1.3086 0 l0 -0.23438 z M58.01761875 6.045 c1.5495 0 2.5879 0.49806 3.1152 1.4941 c0.36458 0.75521 0.54688 1.4941 0.54688 2.2168 l-0.019531 0 c-1.0612 0.091143 -1.7871 0.13672 -2.1777 0.13672 c0 -0.51433 -0.1595 -0.94727 -0.47852 -1.2988 c-0.29948 -0.16927 -0.57617 -0.25391 -0.83008 -0.25391 l-0.39063 0 c-0.66406 0 -1.0677 0.25716 -1.2109 0.77148 c-0.032549 0.14974 -0.048828 0.26692 -0.048828 0.35156 l0 0.20508 c0 0.72917 0.38411 1.2565 1.1523 1.582 c0.065107 0.058594 0.59896 0.30273 1.6016 0.73242 c0.53386 0.24739 1.0286 0.55338 1.4844 0.91796 l0 0.019531 l-2.4512 0 l0 0.27344 l3.2324 0 l0 0.39063 l0.41016 0 l0 4.2383 l-0.80078 0 l0 2.1777 l-6.2109 0 l0 -2.1777 l-1.4648 0 l0 -1.4648 l0.83008 0 l0 -0.50781 l-0.83008 0 l0 -0.3418 l2.8418 0 l0 2.3145 l2.9102 0 l0 -3.4863 l-2.1777 0 l0 -1.1426 l-2.7051 0 l0 -0.27344 l1.3086 0 l0 -0.019531 c-1.1458 -0.76172 -1.7188 -1.8392 -1.7188 -3.2324 l0 -0.18555 c0 -1.1653 0.35808 -2.0508 1.0742 -2.6563 c0.65104 -0.52083 1.6536 -0.78125 3.0078 -0.78125 z M61.54301875 12.9199 l0.98633 0 l0 0.27344 l-0.98633 0 l0 -0.27344 z M52.53902875 15.849599999999999 l0.9375 0 l0 0.50781 l-0.9375 0 l0 -0.50781 z"></path></g><g id="SvgjsG4407" featurekey="sloganFeature-0" transform="matrix(1.5720619178397384,0,0,1.5720619178397384,168.219215324658,205.76868848951187)" fill="#111111"><path d="M1.5234 16.0059 c-0.26042 0 -0.39063 -0.091143 -0.39063 -0.27344 l0 -0.81055 c0 -0.1888 0.13347 -0.2832 0.40039 -0.2832 l3.4766 0 c0.26692 0 0.40039 0.094404 0.40039 0.2832 l0 0.81055 c0 0.18229 -0.13021 0.27344 -0.39063 0.27344 l-3.4961 0 z M10.3837515625 16.0059 c-0.26042 0 -0.39063 -0.091143 -0.39063 -0.27344 l0 -0.81055 c0 -0.1888 0.13347 -0.2832 0.40039 -0.2832 l3.4766 0 c0.26692 0 0.40039 0.094404 0.40039 0.2832 l0 0.81055 c0 0.18229 -0.13021 0.27344 -0.39063 0.27344 l-3.4961 0 z M17.720703125 5.977 l2.7832 0 l0 5.752 l-0.54688 0 l0 5.9375 l4.1504 0 l0 1.25 l-0.82031 0 l0 0.2832 l0.82031 0 l0 0.80078 l-2.6855 0 l0 -0.21484 l-3.6816 0 c-0.013018 -0.15625 -0.019531 -0.27344 -0.019531 -0.35156 l0 -3.1348 l0.70313 0 l0 -0.41992 l-0.70313 0 l0 -9.9023 z M24.107403125 18.916 l1.0156 0 l0 0.2832 l-1.0156 0 l0 -0.2832 z M28.4072221875 6.103999999999999 l6.8457 0 l0 2.2754 c0 0.032549 -0.016279 0.048828 -0.048828 0.048828 l-4.0625 0 l0 3.0078 l3.6426 0 l0 0.029297 c0 0.084639 -0.013018 0.57617 -0.039063 1.4746 c-0.019531 0 -0.029297 0.0065136 -0.029297 0.019531 l0.16602 0 l0 0.70313 l-3.1543 0 l0 2.8516 l-0.84961 0 l0 0.2832 l0.84961 0 l0 0.86914 l3.5742 0 l0 0.32227 l-0.2832 0 l0 1.709 l-4.2773 0 l0 0.30273 l-2.0313 0 l0 -4.9805 l-0.30273 0 l0 -1.7578 l-2.2266 0 l0 -0.30273 l2.2266 0 l0 -6.8555 z M28.4267621875 12.959 l0 0.30273 l1.1426 0 l0 -0.30273 l-1.1426 0 z M38.263668125 6.006 l8.2031 0 l0 2.334 l-2.7148 0 l0 9.6777 l1.2305 0 l0 0.2832 l-1.2305 0 l0 1.0645 l-0.73242 0 l0 0.37109 l0.51758 0 l0 0.26367 l-2.4902 0 c-0.032549 0 -0.048828 -0.016279 -0.048828 -0.048828 l0 -11.611 l-2.7344 0 l0 -2.334 z M42.785128125 18.0176 l0 0.2832 l0.94727 0 l0 -0.2832 l-0.94727 0 z M50.1025109375 9.18 l-0.29297 0.0000095367 l-0.60547 -3.5059 c-0.026045 -0.14974 -0.039063 -0.25716 -0.039063 -0.32227 c0 -0.24089 0.066729 -0.42644 0.2002 -0.55664 s0.32715 -0.19531 0.58105 -0.19531 s0.45085 0.063477 0.59082 0.19043 s0.20996 0.31087 0.20996 0.55176 c0 0.05208 -0.013018 0.16275 -0.039063 0.33202 z M58.6309 6.045 c1.5495 0 2.5879 0.49806 3.1152 1.4941 c0.36458 0.75521 0.54688 1.4941 0.54688 2.2168 l-0.019531 0 c-1.0612 0.091143 -1.7871 0.13672 -2.1777 0.13672 c0 -0.51433 -0.1595 -0.94727 -0.47852 -1.2988 c-0.29948 -0.16927 -0.57617 -0.25391 -0.83008 -0.25391 l-0.39063 0 c-0.66406 0 -1.0677 0.25716 -1.2109 0.77148 c-0.032549 0.14974 -0.048828 0.26692 -0.048828 0.35156 l0 0.20508 c0 0.72917 0.38411 1.2565 1.1523 1.582 c0.065107 0.058594 0.59896 0.30273 1.6016 0.73242 c0.53386 0.24739 1.0286 0.55338 1.4844 0.91796 l0 0.019531 l-2.4512 0 l0 0.27344 l3.2324 0 l0 0.39063 l0.41016 0 l0 4.2383 l-0.80078 0 l0 2.1777 l-6.2109 0 l0 -2.1777 l-1.4648 0 l0 -1.4648 l0.83008 0 l0 -0.50781 l-0.83008 0 l0 -0.3418 l2.8418 0 l0 2.3145 l2.9102 0 l0 -3.4863 l-2.1777 0 l0 -1.1426 l-2.7051 0 l0 -0.27344 l1.3086 0 l0 -0.019531 c-1.1458 -0.76172 -1.7188 -1.8392 -1.7188 -3.2324 l0 -0.18555 c0 -1.1653 0.35808 -2.0508 1.0742 -2.6563 c0.65104 -0.52083 1.6536 -0.78125 3.0078 -0.78125 z M62.1563 12.9199 l0.98633 0 l0 0.27344 l-0.98633 0 l0 -0.27344 z M53.15231 15.849599999999999 l0.9375 0 l0 0.50781 l-0.9375 0 l0 -0.50781 z M77.640665625 6.045 c1.5495 0 2.5879 0.49806 3.1152 1.4941 c0.36458 0.75521 0.54688 1.4941 0.54688 2.2168 l-0.019531 0 c-1.0612 0.091143 -1.7871 0.13672 -2.1777 0.13672 c0 -0.51433 -0.1595 -0.94727 -0.47852 -1.2988 c-0.29948 -0.16927 -0.57617 -0.25391 -0.83008 -0.25391 l-0.39063 0 c-0.66406 0 -1.0677 0.25716 -1.2109 0.77148 c-0.032549 0.14974 -0.048828 0.26692 -0.048828 0.35156 l0 0.20508 c0 0.72917 0.38411 1.2565 1.1523 1.582 c0.065107 0.058594 0.59896 0.30273 1.6016 0.73242 c0.53386 0.24739 1.0286 0.55338 1.4844 0.91796 l0 0.019531 l-2.4512 0 l0 0.27344 l3.2324 0 l0 0.39063 l0.41016 0 l0 4.2383 l-0.80078 0 l0 2.1777 l-6.2109 0 l0 -2.1777 l-1.4648 0 l0 -1.4648 l0.83008 0 l0 -0.50781 l-0.83008 0 l0 -0.3418 l2.8418 0 l0 2.3145 l2.9102 0 l0 -3.4863 l-2.1777 0 l0 -1.1426 l-2.7051 0 l0 -0.27344 l1.3086 0 l0 -0.019531 c-1.1458 -0.76172 -1.7188 -1.8392 -1.7188 -3.2324 l0 -0.18555 c0 -1.1653 0.35808 -2.0508 1.0742 -2.6563 c0.65104 -0.52083 1.6536 -0.78125 3.0078 -0.78125 z M81.166065625 12.9199 l0.98633 0 l0 0.27344 l-0.98633 0 l0 -0.27344 z M72.162075625 15.849599999999999 l0.9375 0 l0 0.50781 l-0.9375 0 l0 -0.50781 z M84.2060509375 6.006 l8.2031 0 l0 2.334 l-2.7148 0 l0 9.6777 l1.2305 0 l0 0.2832 l-1.2305 0 l0 1.0645 l-0.73242 0 l0 0.37109 l0.51758 0 l0 0.26367 l-2.4902 0 c-0.032549 0 -0.048828 -0.016279 -0.048828 -0.048828 l0 -11.611 l-2.7344 0 l0 -2.334 z M88.7275109375 18.0176 l0 0.2832 l0.94727 0 l0 -0.2832 l-0.94727 0 z M98.52539375 6.035 l2.3535 0 c0.032549 0.13672 0.79427 2.679 2.2852 7.627 l0.42969 0 l0 4.5996 l-0.9668 0 l0 0.35156 l0.9668 0 l0 0.98633 l-2.5977 0 l0 -2.8223 l-3.1738 0 l0 1.2012 l-1.2988 0 l0 2.0215 l-2.3535 0 l0 -0.13672 l0.18555 0 l0 -1.8848 l0.9668 0 l0 -3.916 l0.80078 0 z M99.62889375 9.971 l0 0.019531 c-0.20183 1.1133 -0.59245 2.8646 -1.1719 5.2539 l2.1875 0 l0 -1.582 l-0.18555 0 c-0.52083 -2.2591 -0.78125 -3.4896 -0.78125 -3.6914 l-0.048828 0 z M93.48632375 13.6426 l1.8359 0 l0 0.41992 l-1.8359 0 l0 -0.41992 z M100.99609375 19.76562 l3.1348 0 l0 0.23438 l-3.1348 0 l0 -0.23438 z M106.0478515625 6.035 l4.7852 -0.0000095367 c1.6016 0 2.6367 0.56315 3.1055 1.6895 c0.20183 0.57942 0.30273 1.2435 0.30273 1.9922 l0 0.58594 c0 1.3542 -0.29622 2.386 -0.88867 3.0957 l-1.0156 0 l0 0.51758 l1.5527 0 l0 3.3398 l-0.91797 0 l0 0.51758 l1.3867 0 l0 1.9727 l-2.9102 0 l0 -3.1543 l-1.123 0 l0 -2.041 l-1.9531 0 l0 3.457 l0.41992 0 l0 1.9922 l-2.6953 0 c-0.032549 0 -0.048828 -0.016279 -0.048828 -0.048828 l0 -5.6055 l1.2012 0 l0 -0.40039 l-1.2012 0 l0 -7.9102 z M108.7919515625 8.311 l0 3.9453 l0.66406 0 c0.99609 0 1.5723 -0.094404 1.7285 -0.2832 c0.16276 -0.10417 0.28972 -0.31576 0.38086 -0.63478 l1.0352 0 l0 -0.49805 l-0.9375 0 l0 0.048828 c-0.05208 0.29948 -0.091143 0.44922 -0.11719 0.44922 l-1.3379 0 l0 -0.49805 l1.4063 0 c0.032549 0 0.048828 -0.013018 0.048828 -0.039063 c0.013018 -0.40364 0.019531 -0.6315 0.019531 -0.68358 c0 -0.87239 -0.14974 -1.4063 -0.44922 -1.6016 c-0.23438 -0.13672 -0.66406 -0.20508 -1.2891 -0.20508 l-1.1523 0 z M116.61718375 6.006 l8.2031 0 l0 2.334 l-2.7148 0 l0 9.6777 l1.2305 0 l0 0.2832 l-1.2305 0 l0 1.0645 l-0.73242 0 l0 0.37109 l0.51758 0 l0 0.26367 l-2.4902 0 c-0.032549 0 -0.048828 -0.016279 -0.048828 -0.048828 l0 -11.611 l-2.7344 0 l0 -2.334 z M121.13864375 18.0176 l0 0.2832 l0.94727 0 l0 -0.2832 l-0.94727 0 z"></path></g></svg></svg>